<?xml version="1.0" encoding="utf-8"?>
<!-- Generator: Adobe Illustrator 16.0.0, SVG Export Plug-In . SVG Version: 6.00 Build 0)  -->
<!DOCTYPE svg PUBLIC "-//W3C//DTD SVG 1.1//EN" "http://www.w3.org/Graphics/SVG/1.1/DTD/svg11.dtd">
<svg version="1.1" id="Layer_1" xmlns="http://www.w3.org/2000/svg" xmlns:xlink="http://www.w3.org/1999/xlink" x="0px" y="0px"
	 width="500px" height="500px" viewBox="0 0 500 500" enable-background="new 0 0 500 500" xml:space="preserve">
<g>
	<path fill="#010101" d="M117.473,349.752l-32.091,96.27c-1.167,3.5-2.918,4.667-6.417,4.667H20.621
		c-3.503,0-4.668-1.751-4.085-5.834l120.189-341.899c2.334-5.835,4.084-11.67,5.251-31.506c0-2.334,1.167-4.084,3.5-4.084h81.099
		c2.918,0,3.501,0.583,4.085,3.5l134.776,374.571c0.582,3.501,0,5.252-3.501,5.252h-65.345c-2.919,0-4.669-1.167-5.836-3.501
		l-33.839-97.436H117.473z M238.245,286.157c-12.252-38.507-39.675-119.607-51.343-160.448h-0.584
		c-9.335,39.091-32.672,107.355-50.177,160.448H238.245z"/>
	<path fill="#010101" d="M403.931,83.702c0-23.922,16.919-40.258,40.26-40.258c25.085,0,39.672,16.92,39.672,40.258
		c0,23.92-15.754,40.257-40.258,40.257C419.683,123.959,403.931,107.622,403.931,83.702z M408.017,167.134
		c0-2.917,1.749-4.084,4.666-4.084h61.846c3.501,0,4.668,0.583,4.668,4.084v278.888c0,3.5-1.167,4.667-5.253,4.667h-60.096
		c-4.082,0-5.831-1.751-5.831-5.252V167.134z"/>
</g>
</svg>
