<?xml version="1.0" encoding="utf-8"?>
<!-- Generator: Adobe Illustrator 16.0.0, SVG Export Plug-In . SVG Version: 6.00 Build 0)  -->
<!DOCTYPE svg PUBLIC "-//W3C//DTD SVG 1.1//EN" "http://www.w3.org/Graphics/SVG/1.1/DTD/svg11.dtd">
<svg version="1.1" id="Layer_1" xmlns="http://www.w3.org/2000/svg" xmlns:xlink="http://www.w3.org/1999/xlink" x="0px" y="0px"
	 width="50px" height="50px" viewBox="0 0 500 500" enable-background="new 0 0 500 500" xml:space="preserve">
<g>
	<path fill="rgb(0, 248, 240)" d="M50.342,182.212h88.833v285.367H50.342V182.212z M94.765,40.41c28.415,0,51.437,23.031,51.437,51.397
		c0,28.385-23.022,51.457-51.437,51.457c-28.476,0-51.488-23.071-51.488-51.457C43.276,63.441,66.289,40.41,94.765,40.41"/>
	<path fill="rgb(0, 248, 240)" d="M194.829,182.212h85.084v39.028h1.166c11.86-22.464,40.791-46.104,83.977-46.104
		c89.817,0,106.382,59.081,106.382,135.921v156.521h-88.642V328.84c0-33.129-0.646-75.687-46.084-75.687
		c-46.195,0-53.229,36.048-53.229,73.272v141.153h-88.653V182.212z"/>
</g>
</svg>
