<?xml version="1.0" encoding="utf-8"?>
<!-- Generator: Adobe Illustrator 16.0.0, SVG Export Plug-In . SVG Version: 6.00 Build 0)  -->
<!DOCTYPE svg PUBLIC "-//W3C//DTD SVG 1.1//EN" "http://www.w3.org/Graphics/SVG/1.1/DTD/svg11.dtd">
<svg version="1.1" id="Layer_1" xmlns="http://www.w3.org/2000/svg" xmlns:xlink="http://www.w3.org/1999/xlink" x="0px" y="0px"
	 width="50px" height="50px" viewBox="0 0 500 500" enable-background="new 0 0 500 500" xml:space="preserve">
<g id="XMLID_179_">
	<path id="XMLID_180_" fill="rgb(0, 248, 240)" fill-rule="evenodd" clip-rule="evenodd" d="M452.495,369.946c-11.002-7.151-64.442-41.908-74.598-46.948
		c-10.13-5.264-17.654-7.968-26.769,2.589c-9.135,10.546-34.599,33.695-42.145,40.407c-7.786,6.911-14.507,6.991-25.526-0.183
		c-10.808-7.138-46.702-23.597-86.14-68.308c-30.585-34.428-49.443-74.842-54.702-87.144c-5.221-12.296,1.504-17.76,7.942-22.805
		c5.938-4.652,13.12-12.088,19.898-17.987c1.794-1.811,3.328-3.417,4.861-5.021c3.166-3.878,5.629-7.624,8.957-12.83
		c4.913-7.239,3.739-14.113,1.566-20.213c-2.175-6.089-18.531-65.492-25.462-89.658c-6.718-24.13-16.917-21.342-23.767-22.172
		c-6.633-0.805-14.241-2.84-21.98-3.778c-7.721-0.937-20.678,0.405-32.683,10.602c-12.005,10.216-45.219,34.445-52.081,91.021
		c-1.608,13.259-0.772,26.824,1.229,39.853c6.812,41.866,27.963,78.29,31.668,84.584c4.832,8.204,64.58,136.999,176.553,197.458
		c112.237,60.038,114.088,44.78,135.57,45.369c21.419,0.797,71.867-19.314,84.625-45.127c12.979-25.561,15.769-48.558,13.469-53.768
		C470.673,380.901,463.283,377.081,452.495,369.946z"/>
</g>
</svg>
