<?xml version="1.0" encoding="utf-8"?>
<!-- Generator: Adobe Illustrator 16.0.0, SVG Export Plug-In . SVG Version: 6.00 Build 0)  -->
<!DOCTYPE svg PUBLIC "-//W3C//DTD SVG 1.1//EN" "http://www.w3.org/Graphics/SVG/1.1/DTD/svg11.dtd">
<svg version="1.1" id="Layer_1" xmlns="http://www.w3.org/2000/svg" xmlns:xlink="http://www.w3.org/1999/xlink" x="0px" y="0px"
	 width="500px" height="500px" viewBox="0 0 500 500" enable-background="new 0 0 500 500" xml:space="preserve">
<g>
	<path fill="#010101" d="M30.645,87.007c0-2.494,0.998-3.99,3.49-3.99c18.953-0.498,55.858-1.496,92.264-1.496
		c96.752,0,132.661,53.861,132.661,108.721c0,79.297-61.344,113.708-136.65,113.708c-15.958,0-19.948,0-31.42,0v102.238
		c0,2.493-0.996,3.99-3.99,3.99H34.633c-2.491,0-3.988-0.999-3.988-3.492V87.007z M90.989,250.588
		c8.478,0.499,14.962,0.499,31.42,0.499c41.891,0,77.302-13.964,77.302-59.348c0-36.407-25.934-57.852-71.816-57.852
		c-17.456,0-31.418,0.499-36.906,0.998V250.588z"/>
	<path fill="#010101" d="M392.707,207.698c-26.433,0-35.409,10.972-35.409,21.445c0,10.972,7.479,18.453,39.397,30.92
		c56.855,20.946,76.306,43.39,76.306,78.798c0,46.881-36.905,76.305-98.249,76.305c-29.424,0-55.358-5.486-70.319-13.964
		c-2.493-1.495-3.492-2.494-3.492-5.485v-47.379c0-2.494,1.995-3.491,3.992-2.494c21.443,13.963,48.874,19.948,71.316,19.948
		c25.934,0,38.401-8.976,38.401-21.943c0-12.468-9.476-20.447-40.396-32.915c-54.361-19.949-73.812-42.392-73.812-78.299
		c0-37.902,30.921-73.312,93.261-73.312c28.925,0,50.87,3.989,62.84,9.974c2.493,1.497,2.991,3.491,2.991,5.985v43.888
		c0,2.494-1.496,3.99-4.488,2.992C439.586,213.683,414.65,207.698,392.707,207.698z"/>
</g>
</svg>
